<?xml version="1.0" standalone="no"?>
<!DOCTYPE svg PUBLIC "-//W3C//DTD SVG 20010904//EN"
 "http://www.w3.org/TR/2001/REC-SVG-20010904/DTD/svg10.dtd">
<svg version="1.0" xmlns="http://www.w3.org/2000/svg"
 width="512.000000pt" height="512.000000pt" viewBox="0 0 512.000000 512.000000"
 preserveAspectRatio="xMidYMid meet">
<metadata>
Created by potrace 1.14, written by Peter Selinger 2001-2017
</metadata>
<g transform="translate(0.000000,512.000000) scale(0.100000,-0.100000)"
fill="#000000" stroke="none">
<path d="M1490 2495 l0 -1605 1070 0 1070 0 0 1605 0 1605 -1070 0 -1070 0 0
-1605z m1390 1000 c147 -46 264 -131 328 -237 32 -54 61 -161 62 -225 l0 -33
-164 0 -164 0 -7 49 c-20 147 -163 233 -359 218 -225 -17 -357 -170 -304 -351
19 -65 97 -135 208 -188 435 -209 469 -228 540 -294 119 -113 160 -203 160
-354 0 -281 -216 -495 -549 -545 -358 -54 -654 59 -763 292 -26 54 -32 82 -36
159 l-5 94 159 0 160 0 2 -45 c8 -183 188 -292 422 -256 188 29 282 120 283
271 1 78 -22 129 -81 182 -56 51 -108 79 -282 153 -281 120 -368 173 -458 279
-55 66 -82 140 -89 246 -7 109 8 187 53 278 78 159 233 271 438 318 88 20 371
13 446 -11z"/>
<path d="M640 2495 l0 -1175 215 0 215 0 0 1175 0 1175 -215 0 -215 0 0 -1175z"/>
<path d="M4050 2495 l0 -1175 215 0 215 0 0 1175 0 1175 -215 0 -215 0 0
-1175z"/>
</g>
</svg>
